<?xml version="1.0" standalone="no"?>
<!DOCTYPE svg PUBLIC "-//W3C//DTD SVG 20010904//EN"
 "http://www.w3.org/TR/2001/REC-SVG-20010904/DTD/svg10.dtd">
<svg version="1.0" xmlns="http://www.w3.org/2000/svg"
 width="260.000000pt" height="260.000000pt" viewBox="0 0 260.000000 260.000000"
 preserveAspectRatio="xMidYMid meet">
<metadata>
Created by potrace 1.11, written by Peter Selinger 2001-2013
</metadata>
<g transform="translate(0.000000,260.000000) scale(0.100000,-0.100000)"
fill="#000000" stroke="none">
<path d="M1132 2589 c-293 -38 -564 -177 -775 -399 -171 -180 -278 -385 -333
-641 -26 -118 -26 -380 0 -498 59 -273 167 -474 360 -667 193 -193 394 -301
667 -360 118 -26 380 -26 498 0 273 59 474 167 667 360 117 117 190 219 254
351 191 398 168 862 -61 1242 -28 45 -53 83 -56 83 -4 0 -99 -91 -212 -203
-202 -198 -404 -377 -529 -467 -48 -35 -61 -49 -57 -65 3 -11 10 -50 16 -87
32 -201 -100 -410 -296 -471 -27 -9 -177 -37 -333 -63 -264 -45 -284 -47 -299
-31 -16 15 -14 35 31 299 26 156 54 306 63 333 61 197 273 329 472 295 123
-21 235 -89 229 -139 -4 -38 -44 -39 -99 -3 -172 117 -410 54 -498 -132 -23
-48 -38 -112 -71 -309 -23 -136 -40 -251 -37 -254 3 -3 117 14 254 37 278 47
343 69 408 141 81 90 112 219 80 329 -32 107 -33 103 27 146 29 21 95 72 145
112 l92 74 -18 36 c-23 43 -73 93 -117 116 l-32 15 -67 -84 c-48 -60 -73 -85
-89 -85 -26 0 -46 18 -46 40 0 37 213 283 478 551 l183 186 -70 42 c-242 143
-549 207 -829 170z m245 -1298 c32 -62 32 -157 -1 -228 -29 -61 -58 -76 -90
-44 l-21 22 22 37 c32 56 37 100 18 152 -26 71 -28 79 -21 95 4 11 16 15 38
13 26 -2 36 -11 55 -47z"/>
<path d="M1934 2158 c-169 -172 -294 -306 -294 -317 0 -3 21 -19 46 -36 25
-16 62 -52 82 -80 19 -27 37 -52 39 -54 9 -13 483 441 483 464 0 13 -174 185
-187 185 -5 0 -81 -73 -169 -162z"/>
</g>
</svg>
